<svg xmlns="http://www.w3.org/2000/svg"  viewBox="0 0 64 64" width="64px" height="64px"><path d="M 25.238281 4 C 25.218281 4 25.197734 4.0009531 25.177734 4.0019531 C 21.085734 4.3149531 18.002 8.1072187 18 14.824219 C 18 18.979219 23.665344 29.028062 29.277344 38.539062 C 29.464344 38.857062 29.763594 39 30.058594 39 C 30.533594 39 31.002 38.632156 31 38.035156 C 30.939 15.059156 30.180437 11.708469 26.023438 4.4804688 C 25.859438 4.1944688 25.557281 4 25.238281 4 z M 38.753906 4 C 38.438906 4 38.140609 4.1877969 37.974609 4.4667969 C 33.737609 11.580797 33.053 15.042156 33 38.035156 C 32.999 38.633156 33.467406 39 33.941406 39 C 34.236406 39 34.535656 38.857062 34.722656 38.539062 C 40.334656 29.029063 46 18.980172 46 14.826172 C 45.998 8.1021719 42.9095 4.3099531 38.8125 4.0019531 C 38.7925 4.0009531 38.772906 4 38.753906 4 z M 39.337891 6.0957031 C 42.230891 6.7287031 43.999 9.9921719 44 14.826172 C 44 18.187172 38.705578 27.736984 35.017578 34.083984 C 35.146578 15.365984 35.941891 11.915703 39.337891 6.0957031 z M 24.642578 6.0976562 C 28.045578 12.130656 28.845469 15.606078 28.980469 34.080078 C 25.293469 27.733078 20 18.185219 20 14.824219 C 20.001 10.003219 21.761578 6.7416562 24.642578 6.0976562 z M 10.169922 13 C 9.9349219 13 9.6978594 13.077234 9.5058594 13.240234 C 3.8148594 18.098234 6.0203125 27.939625 9.3203125 31.265625 C 11.297313 33.217625 18.183312 36.516656 25.445312 40.847656 C 25.624312 40.953656 25.807375 41 25.984375 41 C 26.693375 41 27.279422 40.246781 26.857422 39.550781 L 11.056641 13.486328 C 10.865641 13.171328 10.519922 13 10.169922 13 z M 53.830078 13 C 53.481078 13 53.134359 13.171328 52.943359 13.486328 L 37.142578 39.550781 C 36.720578 40.246781 37.306625 41 38.015625 41 C 38.192625 41 38.375688 40.953656 38.554688 40.847656 C 45.817687 36.516656 52.702687 33.217625 54.679688 31.265625 C 57.979687 27.939625 60.186141 18.098234 54.494141 13.240234 C 54.303141 13.077234 54.065078 13 53.830078 13 z M 9.9863281 15.580078 L 23.0625 37.148438 C 21.5165 36.269438 20.024625 35.443734 18.640625 34.677734 C 15.104625 32.719734 11.766234 30.869422 10.740234 29.857422 C 9.3022344 28.408422 7.8567656 24.869109 8.0097656 21.162109 C 8.0787656 19.528109 8.4933281 17.337078 9.9863281 15.580078 z M 54.013672 15.580078 C 55.506672 17.337078 55.921281 19.528109 55.988281 21.162109 C 56.141281 24.869109 54.696437 28.40975 53.273438 29.84375 C 52.233438 30.87075 48.894375 32.719734 45.359375 34.677734 C 43.975375 35.443734 42.4835 36.269437 40.9375 37.148438 L 54.013672 15.580078 z M 2.03125 31 C 1.47025 31 0.95590625 31.430906 1.0039062 32.003906 C 1.8579062 42.239906 9.2172969 45 14.279297 45 L 23.976562 45 C 25.011563 45 25.390859 43.758531 24.505859 43.269531 L 2.5566406 31.136719 C 2.3876406 31.042719 2.20725 31 2.03125 31 z M 61.96875 31 C 61.79275 31 61.612359 31.042719 61.443359 31.136719 L 39.494141 43.269531 C 38.608141 43.758531 38.988437 45 40.023438 45 L 49.720703 45 C 54.782703 45 62.141094 42.239906 62.996094 32.003906 C 63.044094 31.430906 62.52975 31 61.96875 31 z M 3.265625 33.8125 L 19.884766 43 L 14.279297 43 C 12.015297 43 4.917625 42.2995 3.265625 33.8125 z M 60.734375 33.8125 C 59.082375 42.2995 51.984703 43 49.720703 43 L 44.115234 43 L 60.734375 33.8125 z M 8.9609375 47 C 8.3369375 47 7.8692031 47.639062 8.0332031 48.289062 C 8.8522031 51.535063 10.545359 54 14.568359 54 C 18.461359 54 22.246531 51.942938 24.769531 48.710938 C 25.297531 48.034937 24.861969 47 24.042969 47 L 8.9609375 47 z M 39.957031 47 C 39.138031 47 38.702469 48.034938 39.230469 48.710938 C 41.754469 51.942937 45.538641 54 49.431641 54 C 53.455641 54 55.147797 51.535063 55.966797 48.289062 C 56.130797 47.639063 55.664062 47 55.039062 47 L 39.957031 47 z M 10.339844 49 L 21.794922 49 C 19.729922 50.905 17.139313 52 14.570312 52 C 12.393313 52 11.134844 51.139 10.339844 49 z M 42.205078 49 L 53.660156 49 C 52.865156 51.139 51.608641 52 49.431641 52 C 46.862641 52 44.270078 50.905 42.205078 49 z M 26.373047 50.646484 C 26.120422 50.686984 25.884656 50.823875 25.722656 51.046875 C 25.398656 51.493875 25.497359 52.118359 25.943359 52.443359 L 27.5625 53.619141 C 27.7405 53.747141 27.945438 53.808594 28.148438 53.808594 C 28.458437 53.808594 28.763984 53.665484 28.958984 53.396484 C 29.282984 52.949484 29.182328 52.325 28.736328 52 L 27.119141 50.824219 C 26.894641 50.661219 26.625672 50.605984 26.373047 50.646484 z M 37.625 50.646484 C 37.3725 50.606234 37.105359 50.661719 36.880859 50.824219 L 35.261719 52 C 34.814719 52.325 34.715063 52.949484 35.039062 53.396484 C 35.236062 53.665484 35.541562 53.808594 35.851562 53.808594 C 36.054563 53.808594 36.2605 53.747141 36.4375 53.619141 L 38.054688 52.443359 C 38.501688 52.118359 38.601344 51.493875 38.277344 51.046875 C 38.114844 50.823375 37.8775 50.686734 37.625 50.646484 z M 23.480469 53.632812 C 23.227844 53.592937 22.959828 53.65 22.736328 53.8125 C 22.289328 54.1365 22.190625 54.760031 22.515625 55.207031 L 23.691406 56.826172 C 23.887406 57.095172 24.191953 57.238281 24.501953 57.238281 C 24.705953 57.238281 24.910891 57.175875 25.087891 57.046875 C 25.534891 56.722875 25.633594 56.097391 25.308594 55.650391 L 24.132812 54.033203 C 23.970812 53.809203 23.733094 53.672688 23.480469 53.632812 z M 40.517578 53.632812 C 40.265078 53.672813 40.029187 53.809703 39.867188 54.033203 L 38.691406 55.650391 C 38.366406 56.097391 38.466109 56.722875 38.912109 57.046875 C 39.090109 57.174875 39.294047 57.238281 39.498047 57.238281 C 39.808047 57.238281 40.113594 57.096172 40.308594 56.826172 L 41.484375 55.207031 C 41.809375 54.760031 41.709672 54.1365 41.263672 53.8125 C 41.039672 53.65 40.770078 53.592812 40.517578 53.632812 z M 19.4375 55.472656 C 19.307844 55.461547 19.175219 55.476531 19.042969 55.519531 C 18.517969 55.690531 18.229391 56.254297 18.400391 56.779297 L 19.017578 58.681641 C 19.155578 59.102641 19.54675 59.371094 19.96875 59.371094 C 20.07075 59.371094 20.175297 59.354266 20.279297 59.322266 C 20.804297 59.151266 21.092875 58.5875 20.921875 58.0625 L 20.302734 56.160156 C 20.174484 55.766406 19.826469 55.505984 19.4375 55.472656 z M 44.5625 55.472656 C 44.173531 55.506359 43.825516 55.767156 43.697266 56.160156 L 43.078125 58.060547 C 42.907125 58.586547 43.196703 59.151266 43.720703 59.322266 C 43.824703 59.355266 43.92825 59.371094 44.03125 59.371094 C 44.45325 59.371094 44.845422 59.102688 44.982422 58.679688 L 45.599609 56.779297 C 45.770609 56.253297 45.481031 55.688578 44.957031 55.517578 C 44.824781 55.474828 44.692156 55.461422 44.5625 55.472656 z M 15 56 C 14.447 56 14 56.447 14 57 L 14 59 C 14 59.553 14.447 60 15 60 C 15.553 60 16 59.553 16 59 L 16 57 C 16 56.447 15.553 56 15 56 z M 49 56 C 48.447 56 48 56.447 48 57 L 48 59 C 48 59.553 48.447 60 49 60 C 49.553 60 50 59.553 50 59 L 50 57 C 50 56.447 49.553 56 49 56 z"/></svg>